<?xml version="1.0" encoding="UTF-8"?><svg id="Layer_1" xmlns="http://www.w3.org/2000/svg" viewBox="0 0 240 218.45"><defs><style>.cls-1{fill:#fff;}</style></defs><path class="cls-1" d="M26.62,134.11c5.41-18.24,7.63-36.5-1.38-54.34-.83-1.64-3.15-3.19-5.01-3.53-6.69-1.23-13.48-1.93-20.23-2.82v92.02c7.56-8.14,15.2-16.22,22.63-24.49,1.74-1.93,3.26-4.37,3.99-6.84Z"/><path class="cls-1" d="M35.74,95.17c-.26-.1-.63,.07-1.98,.26-.8,11.27-1.61,22.74-2.42,34.2,.62,.36,1.23,.72,1.85,1.08,5.82-3.32,11.63-6.66,17.47-9.95,2.9-1.63,3.8-3.97,3.98-7.35,.76-14.28,1.64-28.56,2.99-42.79,1.55-16.36,3.63-32.67,5.65-50.47-7.34,4.16-10.81,9.78-14.75,15.06-3.63,4.86-5.34,9.28-1.9,15.22,2.1,3.63,2.88,8.15,3.65,12.39,1.61,8.88,2.58,17.86-.97,26.55-3.48,8.52-4.87,9.02-13.56,5.8Z"/><path class="cls-1" d="M213.33,0H26.67C11.94,0,0,11.94,0,26.67v43.75c6.62,.3,13.27,.35,19.86,1.02,3.47,.35,4.93-.87,6.44-3.8,6.67-12.97,13.47-25.88,20.55-38.63,8.9-16.04,22.56-23.21,40.82-20.06,26.05,4.5,52.02,9.46,78.06,14.07,3.58,.63,4.42,2.18,4.35,5.68-.12,6.63,.37,13.28,.77,19.91,.07,1.24,.58,3.24,1.38,3.53,7.54,2.69,8.06,9.96,10.69,15.84,.6,1.35,1.06,2.75,1.85,4.8,9.54-4.72,18.88-.93,28.37-.18,8.9,.7,17.92-.06,26.89-.18V26.67c0-14.73-11.94-26.67-26.67-26.67Z"/><path class="cls-1" d="M187.47,76.35c-2.28,.18-4.21,1.21-4.3,4.41-.22,7.67-3.59,14.02-9.06,19.37-1.08,1.05-2.12,2.73-2.17,4.15-.2,6.14,.05,12.3,0,18.45-.04,4.06,1.95,5.79,5.83,6.62,14.18,3.05,27.35,8.72,38.31,18.24,8.49,7.36,15.98,15.87,23.92,23.86V77.42c-10.08-.75-20.16-1.85-30.25-2.14-7.41-.22-14.87,.48-22.28,1.07Z"/><path class="cls-1" d="M231.28,166.47c-11.6-18.07-29.07-29.14-49.09-32.29-17.22-2.71-32.95-10.02-50.05-12.19-10.36-1.31-20.7-3.74-31.05,.34-1.71,.67-3.99,.5-5.86,.08-39.39-8.82-74.6,14.74-89.11,45.82-2.31,4.94-4.09,10.13-6.12,15.21v8.34c0,14.73,11.94,26.67,26.67,26.67h53.33c-.17-1.8-.66-3.63-.46-5.39,.56-5.11-.16-11.33,6.31-13.18,7.31-2.09,16.35,1.79,19.16,8.08,1.41,3.16,1.38,6.97,2,10.49h25c0-.33,.04-.67,0-1-.67-5.43-2.13-10.89,4.61-14.16,6.97-3.38,15.31-3.23,20.74,1.08,4.55,3.61,6.88,8.41,7.65,14.07h18c-.34-9.95,2.62-15.1,10.17-17.69,6.45-2.21,13.92-.22,17.54,5.66,2.17,3.53,2.9,7.95,4.27,11.97,13.96-.85,25.02-12.44,25.02-26.62v-13.34c-2.92-3.98-6.06-7.82-8.72-11.97Z"/><path class="cls-1" d="M166.99,58.69c-.06-8.98-.81-17.95-.99-26.94-.07-3.73-1.84-5.32-5.21-6.02-5.21-1.08-10.32-2.86-15.57-3.46-22.64-2.62-45.32-4.83-67.96-7.43-3.99-.46-5.43,.67-6.46,4.53-5.94,22.17-8.12,44.84-9.66,67.62-.67,9.92-1,19.86-1.52,30.62,37.02-5.65,72.51,1.29,107.42,6.99,0-22.35,.1-44.12-.05-65.9Zm-29.67,36.24c-18.89-2.86-37.67-6.51-56.49-9.83-2.13-.38-4.41-.31-6.36-1.09-1.27-.51-2.07-2.18-3.08-3.33,.4-.67,.8-1.35,1.21-2.02,13.8,2.47,27.55,5.22,41.4,7.32,10.95,1.66,22,2.69,33.03,3.68,4.38,.39,8.49,.71,11.97,5.43-7.91,0-14.94,.86-21.68-.16Zm-3.48-27.79c.41-8.58,6.17-14.49,13.65-14,6.34,.42,11.75,6,11.33,11.68-.46,6.05-6.23,12.22-11.2,11.96-6.42-.33-13.97-5.62-13.77-9.65Zm29.57-18.66c-12.41-2.25-24.82-4.51-38.09-6.92,1.18,2.85,2.1,4.87,2.87,6.95,3.51,9.51-1.12,21.27-9.93,25.64-5.92,2.94-11.21,1.85-16.35-1.9-4.98-3.63-5.17-8.46-3.94-13.83,1.86-8.13,4.08-11.15,14.69-18.92h-16.42c-.1-.62-.19-1.24-.29-1.86,2.37-.48,4.72-1.24,7.11-1.4,16.01-1.09,31.47,2.16,46.83,6.11,4.69,1.21,9.36,2.54,14.03,3.82-.17,.77-.34,1.54-.5,2.31Z"/></svg>