<?xml version="1.0" encoding="UTF-8"?><svg id="Layer_1" xmlns="http://www.w3.org/2000/svg" viewBox="0 0 244 222.1"><defs><style>.cls-1{fill:#fff;}</style></defs><path class="cls-1" d="M6.6,159.39c5.46-5.85,11.1-11.9,16.54-17.95,1.7-1.89,2.96-4.05,3.57-6.08,4.38-14.78,8.2-34.15-1.25-52.87-.52-1.02-2.26-2.22-3.58-2.47-4.81-.88-9.76-1.5-14.56-2.1-1.86-.23-3.72-.46-5.58-.71l-1.74-.23v89.48l.53-.58c2.02-2.17,4.04-4.34,6.06-6.51Z"/><path class="cls-1" d="M44.7,100.82c-1.88,0-4.04-.63-7.07-1.74l-2.19,31,3.92-2.24c4.1-2.35,8.2-4.69,12.32-7.01,2.05-1.16,2.8-2.6,2.97-5.71,.67-12.62,1.54-27.57,2.99-42.87,1.07-11.35,2.39-22.57,3.79-34.45,.46-3.88,.92-7.81,1.38-11.81-3.97,3.05-6.61,6.67-9.18,10.19-.53,.73-1.01,1.39-1.5,2.04-3.32,4.45-4.68,8.01-1.77,13.02,2.22,3.84,3.04,8.35,3.83,12.71l.06,.32c1.52,8.38,2.82,18.12-1.09,27.66-2.19,5.36-3.96,8.87-8.45,8.87Z"/><path class="cls-1" d="M216.88,0H27.12C12.14,0,0,12.14,0,27.12v43.03l2.09,.1c1.93,.09,3.87,.15,5.8,.22,4.66,.16,9.45,.32,14.17,.8,.31,.03,.61,.05,.89,.05,1.58,0,2.36-.42,3.57-2.77,7.76-15.08,14.3-27.37,20.57-38.68,8.03-14.48,19.62-21.81,34.44-21.81,2.71,0,5.56,.25,8.46,.76,14.85,2.56,29.92,5.32,44.5,7.99,11.06,2.02,22.4,4.1,33.57,6.08,5.38,.95,6.07,4.26,6,7.69-.1,5.6,.25,11.35,.59,16.91l.17,2.84c.05,.82,.29,1.58,.44,1.92,6.37,2.42,8.26,7.87,9.92,12.69,.48,1.38,.97,2.79,1.54,4.07,.41,.92,.76,1.86,1.16,2.94,2.88-1.11,5.97-1.65,9.4-1.65,3.61,0,7.19,.59,10.65,1.15,2.42,.4,4.92,.81,7.34,1,2.44,.19,5.08,.28,8.07,.28,3.46,0,6.97-.12,10.36-.24,2.73-.1,5.52-.19,8.27-.23l2.03-.03v9.18l-2.15-.16c-3.03-.23-6.06-.48-9.09-.74-6.93-.59-14.06-1.19-21.07-1.4-.93-.03-1.86-.04-2.78-.04-5.62,0-11.39,.47-16.96,.92l-2.31,.19c-1.79,.14-2.41,.77-2.46,2.47-.22,7.71-3.46,14.69-9.66,20.75-.99,.97-1.55,2.16-1.57,2.78-.12,3.6-.08,7.28-.04,10.84,.03,2.49,.06,5.04,.03,7.56-.03,2.82,1.01,3.95,4.25,4.65,15.59,3.35,28.78,9.64,39.2,18.68,5.94,5.16,11.47,10.93,16.81,16.51,2.37,2.48,7.8,10.04,7.8,10.04v11.94s-7-12.16-9.31-14.74c-23.46-26.16-29.06-29.8-54.4-37.62-10.77-3.32-24.27-7.45-45.84-9.96-27.91-3.25-49.16-1.44-55.08-1.09-17.73,1.05-29.69,4.49-44.22,16.28-9.37,7.6-17.35,14.09-24.97,24.28-7.01,9.37-10.17,15.56-10.17,15.56v15.89c0,14.98,12.14,27.12,27.12,27.12h53.05l-.16-1.63c-.05-.53-.13-1.06-.21-1.59-.2-1.35-.41-2.74-.25-4.2,.08-.76,.14-1.54,.19-2.32,.32-4.73,.73-10.61,7.55-12.56,1.5-.43,3.09-.65,4.74-.65,7.19,0,14.25,4.13,16.79,9.83,1.1,2.46,1.41,5.14,1.71,7.73,.12,1.08,.25,2.19,.44,3.23l.38,2.17h20.64v-1.83c.01-.13,.02-.26,.02-.39,0-.16,.02-.26,0-.35-.06-.48-.12-.96-.19-1.44-.68-4.97-1.52-11.15,5.91-14.76,3.45-1.68,7.24-2.56,10.94-2.56,4.6,0,8.72,1.34,11.92,3.88,4.76,3.77,7.5,8.8,8.39,15.37l.28,2.09h13.8l-.06-1.75c-.37-10.73,3.19-16.79,11.52-19.65,1.91-.66,3.9-.99,5.92-.99,5.87,0,11.09,2.8,13.97,7.49,1.65,2.68,2.51,5.74,3.35,8.69,.35,1.25,.72,2.53,1.13,3.74l.79,2.32c13.66-1.4,24.31-12.94,24.31-26.97V27.12c0-14.98-12.14-27.12-27.12-27.12Z"/><path class="cls-1" d="M166.99,60.53c-.02-2.63-.1-5.29-.21-7.94l-36.19-6.57c.54,1.28,1.02,2.44,1.46,3.63,3.84,10.4-1.16,23.28-10.92,28.12-2.53,1.25-5.07,1.89-7.57,1.89-3.64,0-7.19-1.3-10.85-3.97-6.41-4.68-5.76-11.31-4.71-15.89,1.69-7.37,3.94-11.01,10.72-16.48h-12.21l-.85-5.44,1.87-.38c.73-.15,1.45-.32,2.17-.5,1.67-.4,3.4-.82,5.2-.94,2.12-.14,4.3-.22,6.49-.22,14.22,0,28.09,3.07,40.98,6.39,3.26,.84,6.52,1.74,9.67,2.62,1.46,.41,2.93,.81,4.39,1.21h.05v-.06c-.2-4.11-.41-8.27-.49-12.39-.05-2.55-.93-3.54-3.62-4.1-1.99-.41-3.98-.93-5.9-1.43-3.13-.81-6.34-1.64-9.49-2.01-11.55-1.34-23.31-2.59-34.68-3.8h-.11c-10.86-1.17-22.09-2.36-33.17-3.63-.49-.06-.91-.08-1.28-.08-1.36,0-2.17,0-3.02,3.14-5.61,20.95-7.9,42.03-9.6,67.23-.46,6.74-.75,13.44-1.06,20.53-.11,2.51-.22,5.05-.34,7.63,8.57-1.19,20.24-1.75,29.61-1.75,23.96,0,44.61,3.89,67.4,7.67,0,0,4.47,.74,6.3,1.04,0-5.32,0-10.61,.02-15.87v-.99c.02-16.02,.04-31.16-.07-46.66Zm-5.99,38.39c-2.53,0-4.97,.09-7.33,.17-2.31,.08-4.48,.16-6.65,.16-3.1,0-5.64-.17-8-.52-13.39-2.03-26.91-4.48-39.99-6.86-5.52-1-11.03-2-16.55-2.98-.65-.11-1.33-.18-2.05-.26-1.57-.16-3.16-.32-4.71-.94-1.42-.57-2.29-1.78-3.06-2.85-.28-.39-.52-.73-.78-1.02l-.96-1.09,2.66-4.46,1.36,.24c4.16,.74,8.32,1.51,12.47,2.28,9.45,1.75,19.23,3.56,28.88,5.03,10.76,1.63,21.71,2.66,32.91,3.66h.12c4.36,.4,9.3,.84,13.28,6.24l-1.61,3.19Zm1.81-32.12c-.52,6.97-6.91,13.82-12.89,13.82-.14,0-.27,0-.41-.01-7.07-.37-15.93-6.12-15.66-11.74,.44-9.23,6.66-15.93,14.78-15.93,.33,0,.67,.01,1,.03,3.81,.25,7.48,2.1,10.05,5.07,2.25,2.6,3.37,5.71,3.14,8.76Z"/></svg>